name rise35.5848peak51.9257fall54.8793.mot
datacolumns 19
datarows 35
range 20.39493200000000 20.45158500000000
endheader
time	ground_force1_vx	ground_force1_vy	ground_force1_vz	ground_force1_px	ground_force1_py	ground_force1_pz	ground_force2_vx	ground_force2_vy	ground_force2_vz	ground_force2_px	ground_force2_py	ground_force2_pz	ground_torque1_x	ground_torque1_y	ground_torque1_z	ground_torque2_x	ground_torque2_y	ground_torque2_z	
20.39493200000000	-45.51971900000000	823.70528400000001	52.81359600000000	0.08354900000000	0.00000000000000	0.10506600000000	0.00000000000000	0.00000000000000	0.00000000000000	0.00000000000000	0.00000000000000	0.00000000000000	0.00000000000000	17.32833100000000	0.00000000000000	0.00000000000000	0.00000000000000	0.00000000000000	
20.39658600000000	-46.11495000000000	822.38860799999998	52.73736900000000	0.08263400000000	0.00000000000000	0.10505000000000	0.00000000000000	0.00000000000000	0.00000000000000	0.00000000000000	0.00000000000000	0.00000000000000	0.00000000000000	17.29034400000000	0.00000000000000	0.00000000000000	0.00000000000000	0.00000000000000	
20.39825000000000	-46.72751400000000	820.97105399999998	52.63854000000000	0.08171900000000	0.00000000000000	0.10503100000000	0.00000000000000	0.00000000000000	0.00000000000000	0.00000000000000	0.00000000000000	0.00000000000000	0.00000000000000	17.25463600000000	0.00000000000000	0.00000000000000	0.00000000000000	0.00000000000000	
20.39991300000000	-47.35763200000000	819.45129499999996	52.51666800000000	0.08080500000000	0.00000000000000	0.10500800000000	-1.76494800000000	3.71776200000000	1.31681100000000	0.00000000000000	0.00000000000000	0.00000000000000	0.00000000000000	17.22138700000000	0.00000000000000	0.00000000000000	0.34838000000000	0.00000000000000	
20.40158000000000	-48.00546900000000	817.82795099999998	52.37135500000000	0.07989200000000	0.00000000000000	0.10498100000000	-2.86083400000000	7.09662600000000	2.27733800000000	0.00000000000000	0.00000000000000	0.00000000000000	0.00000000000000	17.19076700000000	0.00000000000000	0.00000000000000	0.61785200000000	0.00000000000000	
20.40325100000000	-48.67113000000000	816.09958700000004	52.20224400000000	0.07898000000000	0.00000000000000	0.10495100000000	-4.10836400000000	11.17024200000000	3.39993800000000	0.00000000000000	0.00000000000000	0.00000000000000	0.00000000000000	17.16293400000000	0.00000000000000	0.00000000000000	0.93547600000000	0.00000000000000	
20.40491300000000	-49.35465600000000	814.26471000000004	52.00902300000000	0.07807100000000	0.00000000000000	0.10491600000000	-5.47216700000000	15.89299000000000	4.66139200000000	0.00000000000000	0.00000000000000	0.00000000000000	0.00000000000000	17.13803600000000	0.00000000000000	0.00000000000000	1.29546000000000	0.00000000000000	
20.40658400000000	-50.05602300000000	812.32176100000004	51.79142300000000	0.07716500000000	0.00000000000000	0.10487800000000	-6.90740600000000	21.18837300000000	6.02980000000000	0.00000000000000	0.00000000000000	0.00000000000000	0.00000000000000	17.11620900000000	0.00000000000000	0.00000000000000	1.68954300000000	0.00000000000000	
20.40825400000000	-50.77513800000000	810.26912100000004	51.54922200000000	0.07626200000000	0.00000000000000	0.10483600000000	-8.36272900000000	26.95477100000000	7.46670700000000	0.30800100000000	0.00000000000000	-0.05721400000000	0.00000000000000	17.09757300000000	0.00000000000000	0.00000000000000	3.92884000000000	0.00000000000000	
20.40991400000000	-51.51183700000000	808.10510099999999	51.28224400000000	0.07536400000000	0.00000000000000	0.10479000000000	-9.78403800000000	33.07393400000000	8.92999100000000	0.31140900000000	0.00000000000000	-0.05760100000000	0.00000000000000	17.08223500000000	0.00000000000000	0.00000000000000	4.75548600000000	0.00000000000000	
20.41158300000000	-52.26588000000000	805.82794799999999	50.99036100000000	0.07446900000000	0.00000000000000	0.10474000000000	-11.11857700000000	39.42111500000000	10.37712300000000	0.31456900000000	0.00000000000000	-0.05796600000000	0.00000000000000	17.07028400000000	0.00000000000000	0.00000000000000	5.58964700000000	0.00000000000000	
20.41325000000000	-53.03695100000000	803.43584099999998	50.67349100000000	0.07358000000000	0.00000000000000	0.10468500000000	-12.31880200000000	45.87537800000000	11.76835700000000	0.31751600000000	0.00000000000000	-0.05831500000000	0.00000000000000	17.06179500000000	0.00000000000000	0.00000000000000	6.40985200000000	0.00000000000000	
20.41492200000000	-53.82465500000000	800.92688999999996	50.33160000000000	0.07269600000000	0.00000000000000	0.10462700000000	-13.34552400000000	52.32873200000000	13.06942800000000	0.32028000000000	0.00000000000000	-0.05864900000000	0.00000000000000	17.05682300000000	0.00000000000000	0.00000000000000	7.19700900000000	0.00000000000000	
20.41658700000000	-54.62851300000000	798.29914399999996	49.96470300000000	0.07181900000000	0.00000000000000	0.10456400000000	-14.17001800000000	58.69311000000000	14.25350000000000	0.32288200000000	0.00000000000000	-0.05897000000000	0.00000000000000	17.05540500000000	0.00000000000000	0.00000000000000	7.93555100000000	0.00000000000000	
20.41825500000000	-55.44796600000000	795.55058699999995	49.57286400000000	0.07094800000000	0.00000000000000	0.10449800000000	-14.77500000000000	64.90473000000000	15.30222300000000	0.32534300000000	0.00000000000000	-0.05928000000000	0.00000000000000	17.05755700000000	0.00000000000000	0.00000000000000	8.61413500000000	0.00000000000000	
20.41991800000000	-56.28236500000000	792.67914199999996	49.15619500000000	0.07008500000000	0.00000000000000	0.10442700000000	-15.15451400000000	70.92577700000000	16.20594400000000	0.32767800000000	0.00000000000000	-0.05958000000000	0.00000000000000	17.06327600000000	0.00000000000000	0.00000000000000	9.22588300000000	0.00000000000000	
20.42158500000000	-57.13097700000000	789.68267700000001	48.71485600000000	0.06922900000000	0.00000000000000	0.10435200000000	-15.31291600000000	76.74366900000000	16.96316600000000	0.32990000000000	0.00000000000000	-0.05987200000000	0.00000000000000	17.07253700000000	0.00000000000000	0.00000000000000	9.76823100000000	0.00000000000000	
20.42325400000000	-57.99297700000000	786.55900699999995	48.24905500000000	0.06838100000000	0.00000000000000	0.10427300000000	-15.26318100000000	82.36837500000000	17.57942700000000	0.33202100000000	0.00000000000000	-0.06015600000000	0.00000000000000	17.08529400000000	0.00000000000000	0.00000000000000	10.24243300000000	0.00000000000000	
20.42491500000000	-58.86745200000000	783.30589799999996	47.75904900000000	0.06754200000000	0.00000000000000	0.10419000000000	-15.02478400000000	87.82833200000000	18.06579600000000	0.33404800000000	0.00000000000000	-0.06043400000000	0.00000000000000	17.10147700000000	0.00000000000000	0.00000000000000	10.65284300000000	0.00000000000000	
20.42658400000000	-59.75339700000000	779.92107699999997	47.24514300000000	0.06671200000000	0.00000000000000	0.10410200000000	-14.62141500000000	93.16554400000000	18.43717700000000	0.33599000000000	0.00000000000000	-0.06070700000000	0.00000000000000	17.12099400000000	0.00000000000000	0.00000000000000	11.00607000000000	0.00000000000000	
20.42825000000000	-60.64971500000000	776.40223300000002	46.70768600000000	0.06589100000000	0.00000000000000	0.10401100000000	-14.07874200000000	98.43042500000000	18.71058600000000	0.33785300000000	0.00000000000000	-0.06097400000000	0.00000000000000	17.14373000000000	0.00000000000000	0.00000000000000	11.31007600000000	0.00000000000000	
20.42992100000000	-61.55521700000000	772.74702800000000	46.14707800000000	0.06507900000000	0.00000000000000	0.10391600000000	-13.42238300000000	103.67683300000000	18.90355700000000	0.33964300000000	0.00000000000000	-0.06123700000000	0.00000000000000	17.16954500000000	0.00000000000000	0.00000000000000	11.57333800000000	0.00000000000000	
20.43158500000000	-62.46862000000000	768.95310300000006	45.56376000000000	0.06427800000000	0.00000000000000	0.10381700000000	-12.67623500000000	108.95766000000000	19.03278000000000	0.34136300000000	0.00000000000000	-0.06149600000000	0.00000000000000	17.19827800000000	0.00000000000000	0.00000000000000	11.80409700000000	0.00000000000000	
20.43325300000000	-63.38855200000000	765.01808700000004	44.95822100000000	0.06348700000000	0.00000000000000	0.10371400000000	-11.86121200000000	114.32124399999999	19.11302900000000	0.34301600000000	0.00000000000000	-0.06175100000000	0.00000000000000	17.22974100000000	0.00000000000000	0.00000000000000	12.00975600000000	0.00000000000000	
20.43491400000000	-64.31354600000000	760.93960400000003	44.33099200000000	0.06270700000000	0.00000000000000	0.10360700000000	-10.99442000000000	119.80871000000000	19.15643000000000	0.34460800000000	0.00000000000000	-0.06200400000000	0.00000000000000	17.26372600000000	0.00000000000000	0.00000000000000	12.19644600000000	0.00000000000000	
20.43658600000000	-65.24204700000000	756.71528699999999	43.68264900000000	0.06193600000000	0.00000000000000	0.10349700000000	-10.08876900000000	125.45230800000000	19.17204300000000	0.34613800000000	0.00000000000000	-0.06225400000000	0.00000000000000	17.29999900000000	0.00000000000000	0.00000000000000	12.36876500000000	0.00000000000000	
20.43825200000000	-66.17241000000000	752.34278400000005	43.01380600000000	0.06117700000000	0.00000000000000	0.10338300000000	-9.15295600000000	131.27466699999999	19.16575900000000	0.34761000000000	0.00000000000000	-0.06250100000000	0.00000000000000	17.33830400000000	0.00000000000000	0.00000000000000	12.52967200000000	0.00000000000000	
20.43991300000000	-67.10290200000000	747.81977199999994	42.32512100000000	0.06042800000000	0.00000000000000	0.10326500000000	-8.19175900000000	137.28887499999999	19.14043800000000	0.34902500000000	0.00000000000000	-0.06274600000000	0.00000000000000	17.37836300000000	0.00000000000000	0.00000000000000	12.68053200000000	0.00000000000000	
20.44158800000000	-68.03170799999999	743.14397199999996	41.61728800000000	0.05969000000000	0.00000000000000	0.10314500000000	-7.20657500000000	143.49922100000001	19.09625500000000	0.35038400000000	0.00000000000000	-0.06299000000000	0.00000000000000	17.41987700000000	0.00000000000000	0.00000000000000	12.82126700000000	0.00000000000000	
20.44325200000000	-68.95692699999999	738.31315600000005	40.89104100000000	0.05896300000000	0.00000000000000	0.10302100000000	-6.19609700000000	149.90241399999999	19.03117700000000	0.35168900000000	0.00000000000000	-0.06323200000000	0.00000000000000	17.46252300000000	0.00000000000000	0.00000000000000	12.95058900000000	0.00000000000000	
20.44491400000000	-69.87658200000000	733.32516599999997	40.14714700000000	0.05824600000000	0.00000000000000	0.10289300000000	-5.15707000000000	156.48911600000000	18.94151900000000	0.35293900000000	0.00000000000000	-0.06347200000000	0.00000000000000	17.50596100000000	0.00000000000000	0.00000000000000	13.06628400000000	0.00000000000000	
20.44658200000000	-70.78861800000000	728.17792999999995	39.38640900000000	0.05754000000000	0.00000000000000	0.10276300000000	-4.08504800000000	163.24559700000000	18.82251400000000	0.35413600000000	0.00000000000000	-0.06371100000000	0.00000000000000	17.54983100000000	0.00000000000000	0.00000000000000	13.16551600000000	0.00000000000000	
20.44825500000000	-71.69090900000000	722.86947399999997	38.60966200000000	0.05684300000000	0.00000000000000	0.10263000000000	-2.97509400000000	170.15538300000000	18.66887100000000	0.35527900000000	0.00000000000000	-0.06394900000000	0.00000000000000	17.59375600000000	0.00000000000000	0.00000000000000	13.24512100000000	0.00000000000000	
20.44991700000000	-72.58126200000000	717.39794300000005	37.81777200000000	0.05615700000000	0.00000000000000	0.10249400000000	-1.82239000000000	177.20077100000000	18.47525600000000	0.35636900000000	0.00000000000000	-0.06418600000000	0.00000000000000	17.63733900000000	0.00000000000000	0.00000000000000	13.30187900000000	0.00000000000000	
20.45158500000000	-73.45742100000000	711.76161500000001	37.01163200000000	0.05548000000000	0.00000000000000	0.10235600000000	-0.62272000000000	184.36411699999999	18.23669800000000	0.35740700000000	0.00000000000000	-0.06442100000000	0.00000000000000	17.68017000000000	0.00000000000000	0.00000000000000	13.33273700000000	0.00000000000000	
